<svg class="drip drip__top drip--one" viewBox="0 0 556.19 82.33">
  <title>Layer 2asdf-2</title>
  <g id="Layer_2" data-name="Layer 2">
    <g id="Layer_1-2" data-name="Layer 1">
      <g id="Layer_2-2" data-name="Layer 2">
        <g id="Layer_1-2-2" data-name="Layer 1-2">
          <g id="Layer_2-2-2" data-name="Layer 2-2">
            <g id="Layer_1-2-2-2" data-name="Layer 1-2-2">
              <path class="cls-1" d="M0,68.42c18.11,0,18.45-20.17,43.75-20.17C87.5,48.25,88,25,116,25c32.2,0,30.62,28.67,66,28.67,36.12,0,44,20.66,65.34,20.66,23.34,0,33.78-19.5,52-19.5,19.67,0,11.4,27.5,23.34,27.5,12.56,0,4.07-27.5,23.65-29.83,20.35-2.42,18.69-38,44.17-38,30,0,22.77,56.4,55.37,56.4,30.76,0,27.43-46.4,59.22-46.4s23.74,50.33,51.11,50.33V0H0Z"/>
            </g>
          </g>
        </g>
      </g>
    </g>
  </g>
</svg>
