<svg class="pointer" viewBox="0 0 264.94 342.84"><defs><style>pointer.cls-1{fill:#fff;}pointer.cls-2{fill:#1c1c1c;}</style></defs><title>pointer</title><g id="Layer_2" data-name="Layer 2"><g id="svg3010"><path id="path4109" class="cls-1" d="M78,0c-.07,4.52-.09,9-.13,13.55l0,1.9-1.9.07c-4.51.15-9,.2-13.58.22-.25,45.9-.11,91.78-.12,137.68v2l-2,0c-3.81,0-7.64.08-11.47.18l-2.07.05,0-2.07c.08-4.49,0-9,0-13.43-15.57-.13-31.16-.21-46.73.05,0,15.51,0,31,0,46.53,4.51.09,9.08.3,13.65,0l2.5-.18L15.79,189c-.65,4.48-.22,9-.2,13.5,4.31.23,8.65.27,13,.27h1.85l.15,1.85c.72,9.59.36,19.22.52,28.85,4.47.18,9,.26,13.48.3l2,0,0,2c.07,9.62.05,19.23.2,28.85,4.52.07,9.06.3,13.62,0l2.3-.12-.18,2.27c-.76,9.61-.1,19.31-.17,29q6.6.13,13.2.17h2l0,2c.19,14.85.1,29.71.3,44.58,25.64.37,51.3.4,76.95.38,26.26,0,52.51.18,78.78-.45-.42-14.81.91-29.62.3-44.42l-.08-2.12,2.12,0c4.41.12,8.82,0,13.2-.1.16-14.73.18-29.49.2-44.23v-1.83l1.8-.17a131.29,131.29,0,0,1,13.53-.42c.11-16.5-.2-33,.3-49.5v-.1c-.55-19.82-.16-39.67-.4-59.5-4.45,0-8.89,0-13.3-.07l-1.93,0,0-1.93c-.09-4.37-.15-8.77-.08-13.18-4.56-.13-9.1,0-13.62-.25l-1.75-.1-.12-1.75c-.32-4.55-.16-9.14-.22-13.75-9.68,0-19.34,0-29-.1l-2,0,0-1.95c-.08-4.37-.13-8.74-.08-13.13-14.84-.79-29.72-.28-44.57-.45l-1.9,0-.08-1.87c-.2-4.5-.29-9-.28-13.55-9.66,0-19.31,0-29-.18l-1.93-.05,0-1.93c-.19-20-.08-40-.15-59.95q-3.86,0-7.73-.05c-1.92,0-3.83,0-5.75,0l-2,0,0-2A124.45,124.45,0,0,0,108.66,0C98.45,0,88.25.07,78,0Z"/><path id="path3016" class="cls-2" d="M78,0c10.21.06,20.42,0,30.63,0a134.16,134.16,0,0,1,.37,15.4c-10.38.1-20.75,0-31.13.1C77.94,10.34,77.95,5.17,78,0Z"/><path id="path3018" class="cls-2" d="M62.41,15.75c5.16,0,10.33,0,15.49-.24q0,85.64,0,171.27-7.8.18-15.6,0c-.1-5.11-.1-10.23,0-15.35-5.17-.2-10.34-.17-15.51-.15-.17-5.22-.21-10.45,0-15.67,5.16-.19,10.33-.13,15.5-.21,0-46.55-.13-93.1.12-139.66Z"/><path id="path3020" class="cls-2" d="M109.09,15.77c5.15-.07,10.3,0,15.45,0,.07,20.64-.07,41.29.15,61.93,10.3.27,20.6.12,30.9.17,0,5.15,0,10.3.3,15.45,15.5.25,31-.37,46.52.45q-.09,7.54.08,15.09c10.32.19,20.65.07,31,.11.07,5.17-.26,10.37.29,15.52,5.13.45,10.28.18,15.42.33-.08,5,0,10.08.09,15.12,5.08.09,10.17.13,15.27.09.24,19.85-.15,39.7.4,59.54-.5,16.52-.2,33-.31,49.56a116.87,116.87,0,0,0-15.32.57c0,15.35,0,30.71-.2,46.06-5.1.16-10.21.33-15.3.08-.58-15.62-.31-31.26-.16-46.89q7.7.07,15.41,0,0-54.45.06-108.89c-5.13-.07-10.26-.06-15.39,0-.29-5.05,0-10.13-.37-15.17-5.09-1-10.29-.38-15.43-.4-.11,15.57.18,31.14-.13,46.72l-15.25,0c-.35-20.77,0-41.54-.12-62.31-10.41-.06-20.82,0-31.22,0,0,15.56.16,31.12,0,46.67q-7.74.17-15.46,0c-.1-20.75-.12-41.51.13-62.26-10.42-.05-20.83-.06-31.25.06-.11,20.73.08,41.46,0,62.19q-7.81.22-15.64,0,0-69.92.12-139.85Z"/><path id="path3026" class="cls-2" d="M0,140.2c15.57-.26,31.15-.18,46.72-.05.11,5.16.2,10.31,0,15.47-10.33.24-20.66.06-31,.14-.38,10.28.55,20.59-.15,30.86-5.2.6-10.44.2-15.65.1C0,171.21,0,155.71,0,140.2Z"/><path id="path3030" class="cls-2" d="M16.08,187c5-.77,10.08-.48,15.12-.34.11,5.19.12,10.39.07,15.59,5.2,0,10.39,0,15.59.09.12,10.35,0,20.7.06,31q7.7,0,15.41,0c-.07,10.38.67,20.84-.39,31.17-5.06.46-10.13.1-15.18,0-.16-10.26-.14-20.52-.23-30.78-5.14,0-10.28-.12-15.42-.33-.17-10.22.33-20.46-.6-30.65-5,0-10-.07-14.91-.33,0-5.18-.7-10.44.48-15.54Z"/><path id="path3038" class="cls-2" d="M62.65,264.65c5.08-.4,10.19-.16,15.29-.13.14,10.33,0,20.66,0,31,5.18,0,10.38,0,15.57.16.1,10.33-.09,20.67.06,31q62.12.15,124.23.06c.16-10.34,0-20.68.07-31,5.3-.07,10.6-.14,15.9.16.84,15.5-.68,31-.24,46.53-26.26.63-52.52.4-78.78.44-25.65,0-51.3,0-76.94-.37-.21-15.51-.1-31-.33-46.52-5.06,0-10.12-.09-15.18-.19.08-10.36-.75-20.79.31-31.09Z"/></g></g></svg>