<svg xmlns="http://www.w3.org/2000/svg" viewBox="0 0 412.98 378.6"><defs><style>.cls-1{fill:#fff;stroke:#000;stroke-linecap:round;stroke-miterlimit:10;stroke-width:0.75px;}</style></defs><title>scribbleBox</title><g id="Layer_2" data-name="Layer 2"><g id="Layer_1-2" data-name="Layer 1"><rect class="cls-1" x="127.98" y="83.08" width="198.73" height="198.73"/><g id="scribble-one"><path d="M209.08,163.12l-71.58-.87c-8.6-.1-18.67-.93-26.07,4.34-5.47,3.9-8.7,10.86-6.15,17.35a1.53,1.53,0,0,0,2.51.66c46.73-39.11,83.4-88.27,117-138.72,9.62-14.46,19-29.06,28.43-43.67l-2.74-.36c19.81,66.82,39.63,133.65,61.2,199.92q9.27,28.47,19,56.78a1.52,1.52,0,0,0,2.74.36,357.85,357.85,0,0,1,76.36-85.14c1.17-.94-.09-3-1.46-2.51q-56.74,19.3-112.3,41.87-27,11-53.76,22.78-13.15,5.79-26.22,11.78c-7.71,3.55-15.43,7.32-22,12.75-12,9.88-17.2,24.58-19.76,39.46-2.27,13.16-5,28.42-1.15,41.52,2.52,8.54,15.57,23.27,23.26,11,4.07-6.49,6.19-15,8.22-22.33a167.7,167.7,0,0,0,4.66-23A173,173,0,0,0,187.89,198.5a1.51,1.51,0,0,0-2.05-.54A417.57,417.57,0,0,1,62.47,261.32l1.16,2.74a761.42,761.42,0,0,0,132.6-116.21q17-18.79,32.65-38.69a1.51,1.51,0,0,0-1.46-2.51L101.5,138.14,86.12,142c-3.7.93-8.58,1.37-11.77,3.69-5.12,3.73-2.11,9.66,1.52,13.19,11.45,11.13,28.22,15.44,43.71,16.47,22.83,1.51,45.4-4.24,68.19-4.48a1.51,1.51,0,0,0,1.5-1.5Q180.67,99,175,28.4l-2.56,1.06,128.91,162L302,189c-14.07,3-32.28,2.77-44.86-5.26-14.16-9-.15-28,7.77-36.84,18.2-20.41,44.81-29.71,71.09-34.16,7-1.18,14-2.06,21-2.78,7.54-.77,15.63-1.54,22.9,1.18,4.18,1.56,13.94,7.76,11.52,13.17-1.07,2.4-5.73,5.2-7.72,7q-4.22,3.73-8.51,7.38a560.88,560.88,0,0,1-66.1,48.29,564.88,564.88,0,0,1-82.77,42.6,1.52,1.52,0,0,0-.66,2.51,795.07,795.07,0,0,1,82.6,96.75c.93,1.29,3.29.58,2.74-1.16-14.28-45.15-32.14-96.68-79.49-116.56-1.78-.75-2.55,2.16-.8,2.89,46.21,19.39,63.51,70.54,77.4,114.46l2.74-1.16A799.86,799.86,0,0,0,227.8,229.9l-.66,2.51a567.88,567.88,0,0,0,160-100.19c2.05-1.83,6.83-4.8,7.94-7.29.71-1.6-.52-4-1.2-5.42-2.3-5-6.89-8.68-11.86-10.78-7.29-3.07-15.45-2.72-23.16-2-7.91.75-15.81,1.75-23.65,3.07-28.76,4.87-58.17,15.81-76.41,39.78-7.43,9.77-17.51,26.31-4.52,35.78s33.4,9.72,48.52,6.48a1.52,1.52,0,0,0,.66-2.51l-128.91-162A1.51,1.51,0,0,0,172,28.4Q177.67,99,186.28,169.35l1.5-1.5C155,168.2,118.22,181,87.61,163.71a48.89,48.89,0,0,1-9-6.44,10.27,10.27,0,0,1-2.44-2.69c-.71-1.42-.61-5.61.8-6.94s5.25-1.57,7.11-2l26.91-6.73,54.79-13.7,62.47-15.62L226.75,107a759.77,759.77,0,0,1-123.56,124q-20,15.9-41.09,30.4c-1.32.91-.56,3.29,1.16,2.74a420,420,0,0,0,124.09-63.67L185.3,200a169.26,169.26,0,0,1,22.39,88.3,167.23,167.23,0,0,1-7.17,45q-1.56,5.12-3.46,10.13c-2,5.23-4.87,13.26-12.18,9.3-6.05-3.28-8.84-10-9.9-16.46-2.15-13.13.4-28.09,3.19-40.93,3.39-15.62,10.58-28.72,24.43-37.31,14.14-8.76,30.37-14.77,45.57-21.43q24.62-10.78,49.51-20.89,55.08-22.38,111.4-41.51l-1.46-2.51a360.32,360.32,0,0,0-76.83,85.74l2.74.36c-22.69-65.9-43.18-132.53-63.14-199.3q-8.57-28.69-17.07-57.4a1.52,1.52,0,0,0-2.74-.36c-32.86,51.08-66,102.58-107.92,146.86a437.71,437.71,0,0,1-37,34.92l2.51.66c-4.31-11,8.09-17.07,16.91-17.78s17.62-.05,26.34.05l57.66.7a1.5,1.5,0,0,0,0-3Z" transform="translate(-0.39)"/></g><g id="scribble-two"><path d="M299.2,218.92c5.74-5.25,12.89-7.79,20.43-9.14,3.71-.67,7.46-1,11.21-1.34,1.48-.12,3-.32,4.48-.3,4.44.08,4.09,5,2.48,8a212.92,212.92,0,0,1-24.15,35.24,246.57,246.57,0,0,1-62.46,53.87,241.71,241.71,0,0,1-43.44,20.61,1.5,1.5,0,0,0,.8,2.89,123.5,123.5,0,0,0,76.55-42.69c10.13-12.1,18.21-25.7,27.12-38.68a180.24,180.24,0,0,1,15.41-19.84c5-5.46,10.39-10.53,15.24-16.13,8-9.21,14.75-20.48,12.1-33.13-2.71-13-13.42-23.92-24.05-31.12-21.82-14.78-50.65-17.51-75.83-11.26-30.16,7.49-56,26.49-78.65,47.06-5.17,4.69-10.93,9.37-15,15.09-4.45,6.27-4.55,13.61-4.95,21-1,18.41-1.91,36.85-1.61,55.3.25,15.49.88,31.58,6.14,46.31,3.4,9.52,11.37,26.95,24.17,24,14.35-3.3,15.73-22.45,17.15-34.2a194.47,194.47,0,0,0-.63-51c-2.24-15.54-5.59-33.11-13.72-46.79-7.2-12.1-20-17.46-33.3-19.87-16.7-3-34-3.88-50.89-4.92q-28-1.73-56.08-1.67-13.78,0-27.56.49l.4,2.95A605.6,605.6,0,0,0,105,163.61c13.28-5.2,26.49-10.76,39.29-17,10.64-5.22,22.42-11.73,29.47-21.62s-4.8-18-11.19-24.76c-7.1-7.54-15.31-14.08-25.64-8-9.45,5.59-15.19,17-19.81,26.54-4.81,9.92-7.9,21.32-3.44,32,4.76,11.37,16.1,13.88,27.19,15.45a148.66,148.66,0,0,0,40,.35c12.34-1.61,22.1-6.41,28.45-17.43s9.22-24.26,11.17-36.72c2.15-13.74,2.81-27.65,3.37-41.53.28-7.07.54-14.13.95-21.19.18-3.06.39-6.12.64-9.17.28-3.44.08-7.12,4.24-9.12,2-1,5-1,7.24-1.07,29.35-1.28,48,26,55.38,51a142.71,142.71,0,0,1-3.66,90.2c-9.64,25.43-29.94,54.57-60.29,54l1.5,1.5c-1.78-25.78-3.6-51.6-7.49-77.16a372.48,372.48,0,0,0-7.81-38.54c-2.9-11.07-5.68-23.79-12.09-33.47-4.62-7-12.9-12.63-21.6-10.4-7.22,1.86-11.07,8.53-12.49,15.41-2.08,10-.19,20.52,1,30.56q2.25,19.47,5.12,38.86,6.68,45.1,16.71,89.61a1.51,1.51,0,0,0,2.51.66c7.17-7.06-8.78-12.53-12.87-14q-20-7.22-40.47-13.06a632.48,632.48,0,0,0-84.08-17.87c-1.2-.17-2.45,1-1.69,2.2,9.7,15.68,28.8,19.59,46,20.18,25.09.86,50.78-2.16,75.54-6,24.13-3.72,49.52-7.48,69.34-22.81,17.45-13.49,31.5-31.06,47.45-46.21,17.23-16.36,36.9-30.91,61-34.21L352.11,109c-4.13,18-17.28,31.5-30.26,43.76-12.81,12.1-26.5,23.21-40.41,34-28.32,21.94-57.69,42.67-83.33,67.81-1.38,1.35.74,3.47,2.12,2.12,26.49-26,56.95-47.22,86.12-70a495.7,495.7,0,0,0,41.44-35.49c12-11.66,23.38-24.74,27.22-41.43a1.52,1.52,0,0,0-1.85-1.85c-40,5.46-66.66,39.73-93.43,66.42-8.37,8.35-17.16,16.48-27.66,22.1-11.08,5.92-23.54,8.65-35.77,11A522.19,522.19,0,0,1,118,216.74c-20.64.87-48.38,1.59-60.76-18.43l-1.69,2.2a633.66,633.66,0,0,1,70.4,14.13q16.92,4.42,33.58,9.78,8.55,2.75,17,5.75c2.1.74,19.52,5.92,15.1,10.26l2.51.66c-10.48-46.64-18.93-94.16-23.27-141.8-.71-7.78-1-17.44,3.84-24.09,8.15-11.25,21.88-2.36,26.89,6.94,5.21,9.67,7.9,21.19,10.6,31.77,2.86,11.19,5.1,22.54,6.91,33.95,4.15,26.2,6,52.7,7.81,79.15a1.53,1.53,0,0,0,1.5,1.5c21.56.41,39.14-14.26,50.63-31.32,13.5-20,20.47-44.83,21.72-68.81,1.22-23.47-2.81-48.6-14.32-69.33C276,40.24,256,24.69,233.44,27.6c-3.95.51-8.48,1.36-10,5.59-2,5.49-1.39,12.52-1.71,18.3-.77,14.11-1,28.24-2.09,42.33-1.09,13.8-3.09,27.61-7.38,40.81s-11.2,24.56-25.61,27.88c-13.88,3.21-29.26,2.78-43.31,1-6.54-.83-13.89-1.61-19.62-5.14-6.18-3.81-9-11.07-9.22-18.06-.42-12.5,7.16-25.82,14.22-35.76,3.43-4.82,8.15-10.27,14.23-11.58,7.89-1.7,13.35,4.94,18.17,10.06,2.89,3.07,5.87,6.07,8.67,9.23a22.27,22.27,0,0,1,2.42,2.9c2.36,3.82-.12,7.29-2.63,10.18-4.8,5.53-10.9,9.87-17.19,13.55-13.27,7.76-27.84,13.66-42.06,19.41A605.17,605.17,0,0,1,19.74,186.8a1.51,1.51,0,0,0,.4,2.95A887,887,0,0,1,118.5,192c14.68,1.15,30.19,1.63,44.37,5.89,6.69,2,13.1,5.18,18,10.3,5.23,5.51,8.09,12.74,10.43,19.85a190.34,190.34,0,0,1,6.3,94c-1.46,7.74-3.92,17.1-12.48,19.65-8.82,2.63-14.91-8.15-18.21-14.71-6.48-12.86-8.06-27.64-8.69-41.84-.72-16.16-.32-32.36.41-48.51.36-8,.61-16,1.25-23.9.71-8.72,4.53-14.21,10.69-20.1,20.87-19.95,44.06-39,71.34-49.32,23.8-9,50.92-10.5,74.68-.41,11.83,5,22.54,13,29.84,23.68,9.2,13.43,6.71,27.23-2.9,39.48-8.14,10.36-18.24,18.94-26.28,29.41-8.53,11.11-15.75,23.13-23.72,34.62-16.55,23.84-38.16,42.48-66.15,51.41a123.22,123.22,0,0,1-19.58,4.47l.8,2.89a247.75,247.75,0,0,0,114.62-84.64,239,239,0,0,0,13.76-20.46c2.38-4,8.62-11.77,4.47-16.46-2.23-2.52-6-2.13-9-1.92-4,.29-8,.67-12,1.31-8.62,1.38-16.77,4.2-23.29,10.17-1.43,1.31.7,3.42,2.12,2.12Z" transform="translate(-0.39)"/></g><g id="scribble-three"><path d="M219.24,181.14c-38.58-1.25-77.27-2.49-115.82.2a457.8,457.8,0,0,0-55.68,7.11c-11.68,2.27-29.24,4.27-33.28,17.79a1.51,1.51,0,0,0,1.45,1.9A540.28,540.28,0,0,0,117,197.21q24.85-5.1,49.15-12.55,12.58-3.85,25-8.33c6-2.18,19.24-10.05,25-4.62l-.23-1.82a529.79,529.79,0,0,0-73,207.27c-.2,1.57,2.08,1.91,2.8.76,30.63-49.73,46.47-106.31,68.15-160.1,6.38-15.82,13.33-31.41,21.25-46.52l-2.74-.36c6.38,29.58,6.47,59.87,7.79,90,.62,14.13,1.55,28.27,3.54,42.28,1,6.76,2.19,13.49,3.75,20.14,1.21,5.17,2.34,11.19,6,15.32,7.3,8.34,16.71.48,22.5-5.38A103.44,103.44,0,0,0,297,302.08c4.31-9.86,8.75-22,7-32.9-1.74-10.62-10.51-16.42-20.31-18.89-14.18-3.57-29.78-3.22-44.31-3.39a463.93,463.93,0,0,0-52.91,2.48l1.06,2.56c10.94-9.76,23.92-16.52,37.27-22.38,14.62-6.42,29.48-12.36,44.25-18.42,30-12.32,60.2-24.3,90.86-34.94,17.29-6,34.73-11.55,52.35-16.53l-1.69-2.2c-12.71,16.59-31.92,26-51.13,33-21,7.64-42.63,13.62-64.32,18.93-22.59,5.53-45.37,10.19-68.19,14.63l-16,3.07c-5.43,1-11.63,3-17.19,1.87-12.17-2.55-3.15-22.58-.68-30.13A267.39,267.39,0,0,1,219.39,142c10.7-17.42,23.33-34.81,38.68-48.45,15.89-14.12,37.48-21.79,55.86-7.3,17.66,13.92,21.51,37.08,22.13,58.26,1.18,40-1.59,87.91-33.83,116.26l2.36.3Q249.34,155.59,187.43,53.84a1.51,1.51,0,0,0-2.8.76L171.55,262.23l2.8-.76C155.42,221,137,177.94,150.21,132.81c5.67-19.39,14.51-38.21,24.58-55.69,9.46-16.44,20.73-32,34.44-45.12a144.1,144.1,0,0,1,22.83-18c1.75-1.11,3.52-2.24,5.36-3.2,2.5-1.31,3.35-.92,5.3,1.47,2.74,3.36,3.27,8.05,3.31,12.24.09,10-2.37,20.47-4.2,30.31q-3,16.39-7.27,32.53a465.88,465.88,0,0,1-21.32,62.91c-2,4.84-3.89,10.14-6.56,14.67-3.31,5.6-8.58,6.59-14.49,7.74q-17.51,3.4-35,6.77L1.46,209.54c-1.58.31-1.26,2.43,0,2.89q25.27,9.28,51.07,17c16,4.75,32.35,10,49,12,32.18,3.87,59.24-13.63,84.42-31.33,1.57-1.1.07-3.7-1.51-2.59-25.91,18.22-53.22,35.63-86.31,30.44-16.4-2.57-32.57-7.71-48.43-12.5S17.9,215.28,2.25,209.54v2.89l151.81-29.34,38-7.34c4.27-.83,9-1.39,12.7-4,3.94-2.76,5.64-7.47,7.52-11.7A468.08,468.08,0,0,0,236,93.52q4.65-17,8-34.26c2.08-10.72,4.57-21.88,5-32.82.23-6.25-.62-13.81-5.85-18-3.33-2.66-4.42-1.85-7.92.16a136.14,136.14,0,0,0-13.64,9c-32,23.88-53.18,59.85-67.9,96.33-9.75,24.18-13.78,48.66-9.13,74.51,4.71,26.18,16,50.63,27.2,74.56.68,1.45,2.71.59,2.8-.76L187.63,54.6l-2.8.76Q246.71,157,302,262.54a1.52,1.52,0,0,0,2.36.3c30.67-27,35-71.06,34.85-109.41-.09-21.55-1.47-45-15.94-62.31-13.08-15.62-32.95-20.24-51.26-11-19,9.61-33.37,28.53-45.45,45.56a271,271,0,0,0-31.88,59.62c-4,10.51-8.92,22.28-10.16,33.54-.94,8.47,4.44,13.41,12.7,13.36,4.56,0,9.13-1.21,13.57-2.06q9.86-1.88,19.71-3.8c13.13-2.56,26.25-5.21,39.32-8.07,28.48-6.22,56.81-13.4,84.41-22.84,22.09-7.56,44.33-17.44,58.89-36.46.83-1.08-.54-2.53-1.69-2.2-63,17.82-124.08,42.81-184.26,68.51-15,6.39-29.57,13.64-41.79,24.54a1.51,1.51,0,0,0,1.06,2.56A461,461,0,0,1,266.79,251c9.88.71,22.28,1.43,29.59,9.13,8.79,9.25,4.08,24.21.29,34.69a100.34,100.34,0,0,1-17.94,30.87c-3.44,4-7.28,8.5-11.75,11.44-7.84,5.15-12.77-.8-14.95-8-7.26-24-8.18-50-9.15-74.84-1.1-28.19-1.66-56.52-7.63-84.2a1.52,1.52,0,0,0-2.74-.36c-27.29,52.05-42.18,109.28-66.3,162.71a387.84,387.84,0,0,1-23.09,43.91l2.8.76A526.25,526.25,0,0,1,218.5,171.4a1.52,1.52,0,0,0-.23-1.82c-4.5-4.23-10.36-2.7-15.61-.78-8.24,3-16.41,6.17-24.74,8.95a533.85,533.85,0,0,1-52.49,14.59A535.92,535.92,0,0,1,15.9,205.14l1.45,1.9c2.28-7.66,10.15-10.77,17.23-12.66,8.29-2.21,16.85-3.68,25.31-5.07A487.31,487.31,0,0,1,113,183.75c35.38-1.89,70.83-.76,106.21.39,1.93.06,1.93-2.94,0-3Z" transform="translate(-0.39)"/></g></g></g></svg>