<svg xmlns="http://www.w3.org/2000/svg" viewBox="0 0 650 650"><defs><style>.cls-1{fill:none;}</style></defs><title>scrib1</title><g id="Layer_2" data-name="Layer 2"><g id="Layer_1-2" data-name="Layer 1"><path class="cls-1" d="M27.08,613.86c10-54.65,36.94-106,63.62-156.58l176.11-334C288,83,309.37,42.54,322.88,0a748.14,748.14,0,0,0-5.1,469.79c8.37-7.52,4.67-19.53.45-29.17C301,401.19,281.7,360.12,243.26,333c-24.16-17-54.14-27.22-84.18-35.52A875.51,875.51,0,0,0,7.67,269.81c-3.85,7.65,2.95,15.93,9.55,22.13,62.29,58.54,147.29,102.6,240.48,112S451.41,384.22,508,321.77c5.89-6.51,10.94-16.56,3.58-21.92-3.58-2.61-8.77-2.82-13.52-3C395.59,294.07,296.69,267,196.23,250.16c-26.2-4.4-53.52-8.09-79.41-2.55C83,254.86,56.76,276.68,33.45,298.37c-3.3,3.07-6.79,6.66-6.37,10.77.4,3.86,4.14,6.82,7.63,9.38l82.72,60.75c40.42,29.68,80.92,59.42,124.75,85.51,54.32,32.34,116.3,59.57,183,61.57,24.44-139.54,51.43-284.65,147.76-400.57C489.38,273.22,341.84,388.29,238.68,526.84a1526.14,1526.14,0,0,1,267.42-75.05c18.35-3.4,41.39-5.07,52.17,7.77L331.85,298.15c-6.22-4.44-13.86-9.18-21.79-7.5-8.32,1.75-12.25,9.54-14.69,16.39C269,381.2,276,463.28,314.83,533.54c4,7.21,11.61,15.59,20.68,13.15l3.7-28.92L424,635.58c5.08,7.05,12.22,15,22.05,14.38C504,551.67,571,456.9,650,369.41l-551.72-.28A3054.62,3054.62,0,0,0,0,33.38Q128.49,215.47,259.87,396.12"/></g></g></svg>