<svg xmlns="http://www.w3.org/2000/svg" viewBox="0 0 388.56 354.01"><defs><style>.cls-1{fill:#fff;stroke:#000;stroke-linecap:round;stroke-miterlimit:10;stroke-width:0.75px;}.cls-2{fill:none;}</style></defs><title>scribbleBox_1</title><g id="Layer_2" data-name="Layer 2"><g id="Layer_1-2" data-name="Layer 1"><rect class="cls-1" x="108.23" y="81.61" width="198.73" height="198.73"/><g id="scribble-one"><path class="cls-2" d="M188.95,163.15l-75.55-.91c-6.7-.08-13.74-.08-19.64,3.1s-10,10.69-7.16,16.75C146.48,132.19,189.6,65.55,231.77,0c25.49,86,51,171.94,80.2,256.7a354.49,354.49,0,0,1,76.59-85.44,2029,2029,0,0,0-190.39,75.58c-10.15,4.63-20.54,9.55-28.08,17.77-12.22,13.31-14.74,32.6-16.69,50.57-1.48,13.68-1.4,30.62,10.6,37.36,2.23,1.25,5,2,7.33,1.05,2.69-1.08,4.11-4,5.23-6.65,19.81-47.69,16-104.56-10.09-149.15A414.29,414.29,0,0,1,42.73,261.3,756.15,756.15,0,0,0,207.67,106.63l-148,37c-2.43.61-5.14,1.43-6.27,3.67-1.56,3.09.88,6.67,3.41,9,14,13,34.46,16.73,53.6,16.23s38.09-4.61,57.24-4.68Q159,97.57,153.37,26.93L282.28,189a71.23,71.23,0,0,1-39.47-2.33c-5.79-2.06-11.91-5.59-13.37-11.57-.95-3.88.33-7.95,1.92-11.61,8.34-19.21,25.52-33.6,44.6-42.24s40.09-12.08,60.93-14.24c7.34-.76,14.92-1.36,22,.79s13.59,7.66,14.77,14.95a563.42,563.42,0,0,1-167,106.79,786.37,786.37,0,0,1,82.84,97.05c-7.26-23-14.61-46.14-26.7-67S233.29,220.14,211,211"/></g><g id="scribble-two"><path class="cls-2" d="M278,216.39c9.19-8.86,23-10.25,35.78-11.15,2.28-.16,4.94-.17,6.4,1.59,1.81,2.19.53,5.47-.85,8A245.7,245.7,0,0,1,188,325.87a121.23,121.23,0,0,0,71.39-37.2c18.17-19.55,29.43-44.7,47.6-64.25,12.06-13,28.23-26.19,26.85-43.86-.57-7.27-4.25-14-8.79-19.68-20.88-26.24-59.44-33.2-91.81-24.42s-59.6,30.47-83.9,53.58c-3.7,3.52-7.46,7.23-9.36,12-1.48,3.7-1.71,7.77-1.93,11.75-1.26,23.26-2.52,46.57-1.5,69.85.81,18.34,3.46,37.69,14.91,52,2,2.51,4.37,4.91,7.42,5.93,5.18,1.74,11-1.11,14.36-5.45s4.64-9.86,5.64-15.23a192.85,192.85,0,0,0-6.3-94.77c-2.35-7.17-5.22-14.37-10.29-20-9.88-10.89-25.77-13.46-40.39-15A878.26,878.26,0,0,0,0,186.78a599.36,599.36,0,0,0,117.36-40.11c12.58-5.82,25.34-12.36,34.22-23,1.68-2,3.27-4.37,3.13-7s-2.13-5-4-7L140,98.36c-3.17-3.37-6.57-6.89-11-8.15-11-3.09-20.07,8.43-25.65,18.36-4.37,7.77-8.82,15.77-10.16,24.58s1.07,18.77,8.24,24.08c4.06,3,9.15,4.23,14.12,5.12a150.06,150.06,0,0,0,43.16,1.44c6.57-.73,13.29-2,18.85-5.54,7.92-5.07,12.38-14.07,15.42-23,10.85-31.84,8-66.47,11.17-99.95a9,9,0,0,1,1.34-4.66c1.17-1.57,3.2-2.2,5.12-2.6,14.87-3.09,30.67,3.08,41.66,13.56S270,66.4,274.08,81a144,144,0,0,1-10.38,103.55c-11.08,21.61-31.19,41.86-55.46,41-3.15-45.59-6.42-91.79-21.17-135-2.1-6.17-4.54-12.44-9-17.19s-11.43-7.69-17.63-5.7c-11.31,3.64-12.42,19-11.19,30.83A1218.11,1218.11,0,0,0,172.51,240c3.43-2.47-1.15-7.41-5.11-8.89A625.85,625.85,0,0,0,35.76,197.6C46,215,69.87,217.6,90.08,217a525,525,0,0,0,88.38-10c11.78-2.35,23.63-5.17,34.23-10.82,9.69-5.16,18-12.53,25.84-20.23,28.35-27.86,55.46-63.14,94.89-68.13-3.3,15.58-14.22,28.36-25.58,39.54C268.09,186.57,218.77,214.95,179,254.12"/></g></g></g></svg>