<svg class="scribble" viewBox="0 0 409.96 375.69"><defs><style>scribble.cls-1{fill:#fff;stroke:#000;stroke-linecap:round;stroke-miterlimit:10;stroke-width:0.75px;}scribble.cls-2{fill:none;}scribble.cls-3{fill:#1c1c1c;}</style></defs><title>scribbleBox_3</title><g id="Layer_2" data-name="Layer 2"><g id="Layer_1-2" data-name="Layer 1"><rect class="cls-1" x="126.51" y="81.61" width="198.73" height="198.73"/><g id="scribble-one"><path class="cls-2" d="M207.23,163.15l-75.55-.91c-6.7-.08-13.74-.08-19.64,3.1s-10,10.69-7.16,16.75C164.76,132.19,207.88,65.55,250,0c25.49,86,51,171.94,80.2,256.7a354.49,354.49,0,0,1,76.59-85.44,2029,2029,0,0,0-190.39,75.58c-10.15,4.63-20.54,9.55-28.08,17.77-12.22,13.31-14.74,32.6-16.69,50.57-1.48,13.68-1.4,30.62,10.6,37.36,2.23,1.25,5,2,7.33,1.05,2.69-1.08,4.11-4,5.23-6.65,19.81-47.69,16-104.56-10.09-149.15A414.29,414.29,0,0,1,61,261.3,756.15,756.15,0,0,0,226,106.63l-148,37c-2.43.61-5.14,1.43-6.27,3.67-1.56,3.09.88,6.67,3.41,9,14,13,34.46,16.73,53.6,16.23s38.09-4.61,57.24-4.68Q177.3,97.57,171.65,26.93L300.56,189a71.23,71.23,0,0,1-39.47-2.33c-5.79-2.06-11.91-5.59-13.37-11.57-.95-3.88.33-7.95,1.92-11.61,8.34-19.21,25.52-33.6,44.6-42.24s40.09-12.08,60.93-14.24c7.34-.76,14.92-1.36,22,.79s13.59,7.66,14.77,14.95a563.42,563.42,0,0,1-167,106.79,786.37,786.37,0,0,1,82.84,97.05c-7.26-23-14.61-46.14-26.7-67S251.57,220.14,229.27,211"/></g><g id="scribble-two"><path class="cls-2" d="M296.28,216.39c9.19-8.86,23-10.25,35.78-11.15,2.28-.16,4.94-.17,6.4,1.59,1.81,2.19.53,5.47-.85,8A245.7,245.7,0,0,1,206.28,325.87a121.23,121.23,0,0,0,71.39-37.2c18.17-19.55,29.43-44.7,47.6-64.25,12.06-13,28.23-26.19,26.85-43.86-.57-7.27-4.25-14-8.79-19.68-20.88-26.24-59.44-33.2-91.81-24.42s-59.6,30.47-83.9,53.58c-3.7,3.52-7.46,7.23-9.36,12-1.48,3.7-1.71,7.77-1.93,11.75-1.26,23.26-2.52,46.57-1.5,69.85.81,18.34,3.46,37.69,14.91,52,2,2.51,4.37,4.91,7.42,5.93,5.18,1.74,11-1.11,14.36-5.45s4.64-9.86,5.64-15.23a192.85,192.85,0,0,0-6.3-94.77c-2.35-7.17-5.22-14.37-10.29-20-9.88-10.89-25.77-13.46-40.39-15a878.26,878.26,0,0,0-121.89-4.38,599.36,599.36,0,0,0,117.36-40.11c12.58-5.82,25.34-12.36,34.22-23,1.68-2,3.27-4.37,3.13-7s-2.13-5-4-7L158.32,98.36c-3.17-3.37-6.57-6.89-11-8.15-11-3.09-20.07,8.43-25.65,18.36-4.37,7.77-8.82,15.77-10.16,24.58s1.07,18.77,8.24,24.08c4.06,3,9.15,4.23,14.12,5.12A150.06,150.06,0,0,0,177,163.8c6.57-.73,13.29-2,18.85-5.54,7.92-5.07,12.38-14.07,15.42-23,10.85-31.84,8-66.47,11.17-99.95a9,9,0,0,1,1.34-4.66c1.17-1.57,3.2-2.2,5.12-2.6,14.87-3.09,30.67,3.08,41.66,13.56S288.25,66.4,292.36,81A144,144,0,0,1,282,184.58c-11.08,21.61-31.19,41.86-55.46,41-3.15-45.59-6.42-91.79-21.17-135-2.1-6.17-4.54-12.44-9-17.19s-11.43-7.69-17.63-5.7c-11.31,3.64-12.42,19-11.19,30.83A1218.11,1218.11,0,0,0,190.79,240c3.43-2.47-1.15-7.41-5.11-8.89A625.85,625.85,0,0,0,54,197.6C64.31,215,88.15,217.6,108.36,217a525,525,0,0,0,88.38-10c11.78-2.35,23.63-5.17,34.23-10.82,9.69-5.16,18-12.53,25.84-20.23,28.35-27.86,55.46-63.14,94.89-68.13-3.3,15.58-14.22,28.36-25.58,39.54C286.37,186.57,237,214.95,197.31,254.12"/></g><g id="scribble-three"><path class="cls-2" d="M217.38,181.17c-61-2-122.87-3.9-182.41,9.64-8.71,2-18.8,5.68-20.92,14.36A534.21,534.21,0,0,0,201.2,168.79c4.7-1.83,10.84-3.43,14.15.39a524.72,524.72,0,0,0-72.79,206.51c39.6-63.87,54.35-140.14,89.39-206.62,11.4,51.75,2.84,106.61,16.44,157.82,1.39,5.24,3.88,11.25,9.18,12.35,4.39.91,8.58-2.08,11.89-5.12a101.9,101.9,0,0,0,30.06-51.26c1.64-6.94,2.46-14.59-.83-20.92-5.28-10.14-18.44-12.66-29.84-13.57a455.58,455.58,0,0,0-84.28,1c14.22-12.94,32.36-20.55,50.11-27.93C292.24,197.58,350,173.63,410,156.75c-14.13,18.9-37.13,28.72-59.49,36.27C302.21,209.32,252,218.92,202,228.47c-5.87,1.12-13.22,1.67-16.53-3.31-2.29-3.46-1.44-8-.4-12.06a268.6,268.6,0,0,1,59.86-111.81c12.71-14.17,29.46-27.89,48.41-26,16,1.58,29.17,14.47,35.48,29.28s7,31.33,7.06,47.43c.17,39.15-4.76,82.78-34.41,108.35Q246.22,154.87,184.28,53.13L171.2,260.76c-16.31-34.85-33-72-28.41-110.23,1.9-15.7,7.37-30.76,13.67-45.27C173.76,65.45,199.28,27,237.55,6.53c8.31,3.21,8.83,14.63,7.66,23.46a466.45,466.45,0,0,1-37.64,131.27c-1.13,2.49-2.34,5-4.36,6.9-2.82,2.58-6.78,3.4-10.53,4.13L0,209.52q37,13.62,75.13,23.74c12.4,3.29,25.08,6.31,37.9,5.75,26-1.14,48.94-16.71,70.26-31.71"/></g><path id="path4097" class="cls-2" d="M197.79,118.59H194.6c-.15,24.31-.06,48.62-.09,72.93,0,12.89-.09,25.79.08,38.68,4.38,0,8.75,0,13.12,0,.12-1.88.15-3.77.15-5.66v-.85h.85c1.86,0,3.72,0,5.57,0a42.91,42.91,0,0,0,0-5.73l-.12-1.07,1.07.14a39,39,0,0,0,5.77,0c0-1.84.08-3.67.09-5.51v-.84h.84c1.45,0,2.9,0,4.36-.08l1-.05-.07,1c-.3,4,.38,8,.16,12,1.89.06,3.79.09,5.69.11h.82v.82c0,4.07,0,8.13.09,12.2q2.81.06,5.62.06h.83v.83c0,1.9,0,3.78,0,5.69,4.4.06,8.81,0,13.22,0a36.59,36.59,0,0,0,.09-5.66l-.06-.93.93,0c1.87.05,3.74,0,5.59,0,.06-4.38,0-8.77,0-13.15-1.88-.05-3.76-.08-5.64-.09h-.82v-.82c-.06-4.08,0-8.14-.05-12.21-1.89-.07-3.79-.1-5.69-.05l-.9,0,0-.9q.1-2.36.08-4.69V204H248c8.42,0,16.84,0,25.26-.11.05-4.37.07-8.73,0-13.1q-2.84,0-5.67,0h-.82v-.82c0-1.89,0-3.79,0-5.69-1.88,0-3.76-.06-5.65-.06h-.83v-.83c0-1.88,0-3.75-.07-5.63-1.88-.08-3.77-.13-5.67-.12h-.85v-.85q0-2.85,0-5.7c-1.9,0-3.79,0-5.69,0l-.82,0v-.82c0-1.86,0-3.71-.07-5.57-1.87-.1-3.75-.12-5.63-.13h-.83v-.83c0-1.9,0-3.78,0-5.69q-2.85,0-5.69-.05H234l0-.8c-.07-1.89-.14-3.8-.15-5.7-1.85,0-3.7-.05-5.56-.05h-.82l0-.82c0-1.89-.07-3.78-.05-5.67l-5.69-.06h-.8l0-.8c-.07-1.89-.1-3.79-.11-5.7-1.89,0-3.77-.05-5.65-.06h-.83v-.83c0-1.88,0-3.77-.06-5.65l-5.7,0h-.82v-.82c0-1.89,0-3.79,0-5.69-1.9-.06-3.81,0-5.72,0h-.83v-.83c0-1.9,0-3.8-.13-5.7h-3.19Z"/><path id="path3022" class="cls-3" d="M194.6,118.61c2.13,0,4.25,0,6.37,0q.14,3.26.14,6.52c2.18,0,4.36,0,6.54,0,0,2.17,0,4.34,0,6.5q-3.3,0-6.59,0c0,30.63.06,61.25,0,91.87,2.17,0,4.34,0,6.51,0,0-2.16,0-4.32,0-6.49a33.31,33.31,0,0,1,6.52.16,34.63,34.63,0,0,1,.1,6.48c-2.13,0-4.27,0-6.4,0,0,2.17,0,4.34-.17,6.51-4.37,0-8.75,0-13.12,0-.18-12.89,0-25.78-.08-38.68C194.54,167.22,194.45,142.91,194.6,118.61Z"/><path id="path3024" class="cls-3" d="M207.69,131.67l6.52,0c0,2.16.06,4.32.08,6.48,2.16,0,4.33,0,6.49.07,0,2.16,0,4.33.11,6.5,2.17,0,4.34,0,6.51.07q0,3.24.06,6.48,3.2,0,6.4.07c0,2.16.09,4.33.17,6.49,2.16,0,4.32.05,6.49.06q0,3.25,0,6.5c2.16,0,4.32,0,6.48.15.06,2.13.08,4.27.08,6.41,2.16.05,4.33.07,6.49.05,0,2.17,0,4.35,0,6.52-2.19.11-4.39.09-6.58,0,0-2.17,0-4.34,0-6.51-2.2,0-4.4,0-6.6,0,0-2.2,0-4.39,0-6.59H234c0-2.18,0-4.36,0-6.54-2.2-.05-4.4,0-6.6,0,0-2.2,0-4.4,0-6.59h-6.52c0-2.19,0-4.38,0-6.57-2.19,0-4.37,0-6.55,0,0-2.17,0-4.34,0-6.51-2.16,0-4.33,0-6.49,0-.07-2.19-.06-4.38-.05-6.57Z"/><path id="path3028" class="cls-3" d="M253.66,177.57c2.18-.06,4.35,0,6.52.14,0,2.15.06,4.3.08,6.46,2.16,0,4.32,0,6.49.07q0,3.25,0,6.51c2.16,0,4.33.05,6.5.05.08,4.37.07,8.73,0,13.1-8.7.1-17.4.1-26.1.11,0,2.14,0,4.28-.1,6.42-2.19.11-4.39.08-6.59.07q-.09-6.57,0-13.13c8.75-.05,17.5,0,26.24,0q0-3.28,0-6.57c-2.19,0-4.38,0-6.56,0,0-2.17,0-4.35,0-6.52q-3.25,0-6.5,0c-.08-2.21-.08-4.43,0-6.64Z"/><path id="path3032" class="cls-3" d="M220.81,203.86q3.26,0,6.52,0a39.06,39.06,0,0,1-.13,6.74c-2,.16-4.09.14-6.13.12,0,2.11-.06,4.23-.1,6.35a31.24,31.24,0,0,1-6.53-.14,28.45,28.45,0,0,1-.2-6.48h6.53c0-2.19,0-4.38,0-6.57Z"/><path id="path3034" class="cls-3" d="M227.2,210.6a52.82,52.82,0,0,1,6.74-.13c0,4.36,0,8.73,0,13.09,2.19,0,4.38,0,6.56,0,0,4.35,0,8.69,0,13,4.38.07,8.78-.14,13.15.12a32.91,32.91,0,0,1-.07,6.57c-4.4,0-8.81,0-13.21,0q0-3.26-.05-6.51c-2.15,0-4.31,0-6.46-.07-.07-4.35-.05-8.69-.1-13-2.17,0-4.34,0-6.51-.12.24-4.33-.62-8.67-.12-13Z"/><path id="path3036" class="cls-3" d="M247.11,210.42c2.18-.1,4.37,0,6.55,0,0,4.35,0,8.69.05,13,2.16,0,4.32,0,6.48.11.05,4.38.08,8.77,0,13.15-2.16.05-4.32.11-6.48,0-.24-4.37,0-8.75-.08-13.12-2.2,0-4.4,0-6.59-.05,0-4.39-.05-8.78.06-13.17Z"/><path id="path4109" class="cls-2" d="M202,114.56c0,1.67,0,3.34,0,5v.7l-.7,0c-1.67.05-3.34.07-5,.08-.09,17,0,33.94,0,50.91V172h-.73c-1.41,0-2.83,0-4.24.06l-.77,0v-.77c0-1.66,0-3.32,0-5-5.76,0-11.52-.08-17.28,0,0,5.74,0,11.47,0,17.2,1.67,0,3.36.11,5,0l.92-.06-.14.92a33.53,33.53,0,0,0-.07,5c1.59.08,3.2.1,4.81.1h.68l.06.68c.27,3.55.13,7.11.19,10.67,1.65.07,3.32.09,5,.11h.72v.72c0,3.56,0,7.11.07,10.67,1.67,0,3.35.11,5,0l.85,0-.06.84c-.28,3.56,0,7.14-.06,10.7q2.44,0,4.88.06h.73v.73c.07,5.49,0,11,.11,16.48,9.48.14,19,.15,28.45.14,9.71,0,19.42.07,29.13-.17-.16-5.48.34-11,.11-16.43l0-.79.79,0c1.63,0,3.26,0,4.88,0,.06-5.45.07-10.9.07-16.35v-.67l.67-.06a48.55,48.55,0,0,1,5-.16c0-6.1-.07-12.2.11-18.3v0c-.2-7.33-.06-14.67-.15-22-1.64,0-3.29,0-4.92,0h-.71l0-.71c0-1.62-.05-3.24,0-4.87-1.69,0-3.37,0-5-.09l-.65,0,0-.65c-.12-1.68-.06-3.38-.08-5.08-3.58,0-7.15,0-10.72,0h-.72v-.72c0-1.61,0-3.23,0-4.85-5.49-.29-11-.1-16.48-.17h-.7l0-.69c-.08-1.66-.11-3.33-.1-5-3.57,0-7.14,0-10.7-.06l-.71,0v-.71c-.07-7.39,0-14.78-.06-22.17l-2.86,0h-2.88v-.76a46,46,0,0,0-.14-5.08c-3.78,0-7.55,0-11.32,0Z"/><path id="path3016" class="cls-3" d="M202,114.56c3.78,0,7.55,0,11.33,0a49.61,49.61,0,0,1,.14,5.69c-3.84,0-7.67,0-11.51,0C202,118.38,202,116.47,202,114.56Z"/><path id="path3018" class="cls-3" d="M196.26,120.38c1.91,0,3.82,0,5.73-.09q0,31.67,0,63.33-2.88.07-5.77,0c0-1.89,0-3.78,0-5.68-1.91-.07-3.82-.06-5.74-.06-.06-1.93-.08-3.86,0-5.79,1.91-.07,3.82,0,5.73-.08,0-17.21,0-34.43,0-51.64Z"/><path id="path3020" class="cls-3" d="M213.52,120.39c1.9,0,3.81,0,5.71,0,0,7.63,0,15.27.06,22.9,3.81.1,7.62,0,11.43.06,0,1.9,0,3.81.11,5.71,5.73.09,11.47-.14,17.2.17q0,2.79,0,5.58c3.82.07,7.64,0,11.46,0,0,1.91-.1,3.83.11,5.74,1.9.17,3.8.07,5.7.12,0,1.86,0,3.73,0,5.59,1.88,0,3.76,0,5.65,0,.09,7.34-.06,14.68.15,22-.18,6.11-.07,12.22-.11,18.33a43.22,43.22,0,0,0-5.66.21c0,5.68,0,11.36-.07,17-1.89.06-3.78.12-5.66,0-.21-5.78-.11-11.56-.06-17.34q2.85,0,5.7,0,0-20.13,0-40.26c-1.9,0-3.79,0-5.69,0-.11-1.87,0-3.75-.14-5.61a30.62,30.62,0,0,0-5.71-.15c0,5.76.07,11.51,0,17.28h-5.64c-.13-7.68,0-15.36,0-23-3.85,0-7.7,0-11.54,0,0,5.75.06,11.51,0,17.26q-2.86.06-5.72,0c0-7.67,0-15.35,0-23-3.85,0-7.7,0-11.56,0,0,7.67,0,15.33,0,23q-2.89.08-5.78,0,0-25.85,0-51.71Z"/><path id="path3026" class="cls-3" d="M173.19,166.4c5.76-.1,11.52-.07,17.28,0,0,1.91.07,3.81,0,5.72-3.82.09-7.64,0-11.46.05-.14,3.8.2,7.61-.06,11.41a43.17,43.17,0,0,1-5.79,0C173.17,177.86,173.19,172.13,173.19,166.4Z"/><path id="path3030" class="cls-3" d="M179.13,183.69a31,31,0,0,1,5.59-.13c0,1.92,0,3.84,0,5.76,1.92,0,3.84,0,5.76,0,0,3.83,0,7.65,0,11.48q2.85,0,5.7,0c0,3.84.25,7.71-.14,11.53a52.63,52.63,0,0,1-5.61,0c-.06-3.79-.05-7.59-.09-11.38-1.9,0-3.8,0-5.7-.12-.06-3.78.12-7.57-.22-11.33-1.84,0-3.68,0-5.51-.12a24.87,24.87,0,0,1,.18-5.75Z"/><path id="path3038" class="cls-3" d="M196.35,212.41c1.88-.15,3.77-.06,5.65,0,.05,3.82,0,7.64,0,11.46,1.92,0,3.84,0,5.76.06,0,3.82,0,7.64,0,11.46q23,.06,45.94,0c.06-3.82,0-7.65,0-11.47,2,0,3.92-.05,5.88.06.31,5.73-.25,11.47-.09,17.21-9.71.23-19.42.15-29.13.16-9.48,0-19,0-28.45-.14-.08-5.74,0-11.47-.12-17.2-1.87,0-3.74,0-5.61-.07,0-3.83-.28-7.69.11-11.5Z"/></g></g></svg>