<svg xmlns="http://www.w3.org/2000/svg" viewBox="0 0 411.85 265.64"><defs><style>.cls-1{fill:none;}</style></defs><title>spout_1</title><g id="Layer_2" data-name="Layer 2"><g id="Layer_1-2" data-name="Layer 1"><path class="cls-1" d="M209.59,261.73c-1.64-27.45-3-55.16,1.33-82.32s14.61-54.06,33.56-74,47.36-31.93,74.41-27c24.29,4.43,44.67,21.58,59,41.69s23.61,43.28,34,65.7"/><path class="cls-1" d="M188.53,264.34c1.6-39.21-2.78-78.83,3.72-117.53s26.7-78.15,62.6-94c30.47-13.45,68.9-6.18,92.35,17.48"/><path class="cls-1" d="M141.92,263.09c.77-38.73-3.62-77.45-11.38-115.4C126.31,127,120.8,105.9,108.19,89S74.28,60,53.54,64C27.45,69,11.65,96.63,7.49,122.87s-.32,53.28-4.73,79.48"/><path class="cls-1" d="M176.51,265.51,170.42,162.1c-2.9-49.25-6.24-100.14-28.8-144"/><path class="cls-1" d="M183.41,257.53c-3.8-38.73-7.61-77.64-5.41-116.49s10.66-78,30-111.75C216.44,14.46,229.75-.65,246.81,0"/><path class="cls-1" d="M159.6,265.64a810.36,810.36,0,0,0-20.2-133.17c-4.68-19.63-10.19-39.34-20.36-56.77S93.5,43.14,74.28,37C50.23,29.29,24.23,36.42,0,43.54"/></g></g></svg>