<svg xmlns="http://www.w3.org/2000/svg" viewBox="0 0 418.64 265.51"><defs><style>.cls-1{fill:none;}</style></defs><title>spout</title><g id="Layer_2" data-name="Layer 2"><g id="Layer_1-2" data-name="Layer 1"><path class="cls-1" d="M216.38,261.73c-1.64-27.45-3-55.16,1.33-82.32s14.61-54.06,33.56-74,47.36-31.93,74.41-27c24.29,4.43,44.67,21.58,59,41.69s23.61,43.28,34,65.7"/><path class="cls-1" d="M195.31,264.34c1.6-39.21-2.78-78.83,3.72-117.53s26.7-78.15,62.6-94c30.47-13.45,68.9-6.18,92.35,17.48"/><path class="cls-1" d="M148.71,263.09c.77-38.73-3.62-77.45-11.38-115.4C133.09,127,127.58,105.9,115,89S81.07,60,60.33,64c-26.09,5-41.89,32.64-46.05,58.88S14,176.15,9.55,202.35"/><path class="cls-1" d="M.15,71.11c-1.07-5.29,3.71-9.78,8-13C32.86,39.77,62.13,22.54,92.48,27.47c26.45,4.3,47.88,25.26,59.37,49.46s14.57,51.46,16.5,78.18q3.57,49.43,2.64,99.06"/><path class="cls-1" d="M183.3,265.51,177.21,162.1c-2.9-49.25-6.24-100.14-28.8-144"/><path class="cls-1" d="M190.2,257.53c-3.8-38.73-7.61-77.64-5.41-116.49s10.66-78,30-111.75C223.22,14.46,236.54-.65,253.6,0"/></g></g></svg>