<svg xmlns="http://www.w3.org/2000/svg" viewBox="0 0 83.61 82.24"><defs><style>.cls-1{fill:#fff;}</style></defs><title>squiggles</title><g id="Layer_2" data-name="Layer 2"><g id="Layer_1-2" data-name="Layer 1"><path class="cls-1" d="M3.48,79.09a1.5,1.5,0,0,0,0-3,1.5,1.5,0,0,0,0,3Z"/><path d="M.29,2.66c1.51-2.82,2-1.58,3.71,0,.06.05.26,0,.28-.07C4.86,0,6,.81,7.8,2A.24.24,0,0,0,8.08,2c1.4-2.55,3.9.64,4.8,1.46.06.06.25,0,.28-.07,1-2.4,3-1.06,4.28.33.06.06.33,0,.27-.11a9.65,9.65,0,0,0-3.57-2.45.24.24,0,0,0-.26.09C12.09,4.83,11.36-.13,9.29.2c-.22,0-.46.33-.61.38s-.29.64-.5.71C7.12,1.69,6,.51,5.16,0a.24.24,0,0,0-.28.07c-.29.6-.4,1.62-1.07,1.66S2.47.59,2.12,0c0-.07-.23,0-.27.06A12.67,12.67,0,0,0,0,2.7c0,.06.24,0,.29,0Z"/><path d="M2.25,78.62H22.92c.13,0,.24-.21.06-.22a31.26,31.26,0,0,1-4.79-.65c-.15,0-.29.18-.1.22a23.74,23.74,0,0,0,2.38.44q1.93.41.88,0c-1.35.65-4.83,0-6.36,0H2.27c-.17,0-.22.22,0,.22Z"/><path d="M58.36,77l2.75,3.43c0,.06.27,0,.28-.07.26-1.23.3-3.38.94-4.45s-.64-1.89,1.84-.75c-1.6-.73,3,2.19,1.21.88a3.79,3.79,0,0,1,2.88,2.26.73.73,0,0,0,.32.27c.36.16.92.23,1.22.38a20.4,20.4,0,0,1,4.7,3.31c.05,0,.26,0,.28-.07,0,.09.56-3.14.86-2.68.05.08.32,0,.29-.08-.43-.66-.16-.45-.9-.72-.06,0-.27,0-.26.1.24,4.78-2.52,1.2-4.36-.37-.06,0-.2,0-.25,0-.33.27-6.23-4.51-7.28-4.48-.06,0-.17,0-.2.09-.68,1.34-.41,3.5-1.21,4.66-1,1.45-1.93-.72-2.83-1.84-.05-.06-.33,0-.27.11Z"/><path d="M.41,55.72c2.77,0,10.82-5.3,7.28-8.2a1.54,1.54,0,0,0-2.16-.16c-1.72,1.46,2,5.79,2.71,6.67,1.18,1.49,3,3.94,5.07,4.2,2.23.28,2.36-1.45,4.1-2.18-7.17,3,10.1-2.42,2.73-.12.46-.14.79-.83,1.11-1,.08,0,3.2-1.74,3.29-1.76.48-.06,1,.37,1.5.3a13.58,13.58,0,0,0,4.34-1c.18-.08,0-.23-.13-.17-5,2.26-4.93-.51-7.85.53-1.7.6-2.63,4-5.49,2.67a.2.2,0,0,0-.18,0c1.76-1.51-.52.45-.49.44C12.69,57.09,11.45,57.4,9,54.5c-.31-.36-2.14-3.12-2.28-3.12L6.55,52A9,9,0,0,1,.44,55.52c-.16,0-.22.21,0,.21Z"/><path d="M30.34,36l4,.43c0,.09.18.06.24,0,1.7-1.26,2.43-2.77,5.09-2.77,3.84,0,7.86,1.14,11.54,2.13.11,0,.34-.13.17-.18-4.43-1.2-12-4-16.07-1.17-.08.05-.14.78-.23.81-1.64.61-.37-.06-1.29-.36s-.13-.7-1.44-.86-2.06.79-2.34,2c0,.13.27.09.29,0Z"/><path d="M50.44,9.95a2.27,2.27,0,0,0,.88-.19c.6-.37.26-1.28.62-1.57v0q-1.41-3.5,4.42-1.93a.24.24,0,0,0,.28-.07c.82-1.88,4.25,2.27,4.73,2.74.06.06.24,0,.28-.07l6.16-.59q.68.78,1.41,1.51c.95.62.16.26.4.37,1.56.72,4.21.09,5.83,0,.09,0,.31-.15.12-.14-2.08.06-4.54.39-6.43-.74-.88-.52-1.35-1.6-2.34-2.06a4.49,4.49,0,0,0-2.73-.49c-.52.08-1.81,1.09-2.13,1.12-1.89.16-3.36-2-4.71-3.1a.24.24,0,0,0-.28.07c-.51,1.18-3-.56-4-.3-2.31.6-1.37,5.11-2.48,5.29-.13,0-.25.17,0,.13Z"/><path d="M82.39,57.43l-.05-8c0-.13-.26-.05-.29,0l-.84,2.24c0,.12.24,0,.28,0a10.33,10.33,0,0,0,2.12-4.95c0-.12-.27-.07-.29,0a10.43,10.43,0,0,1-1.15,3.51c-.94,1.71-.19,0-.12,0s0,6.67,0,7.23c0,.12.29.06.29,0Z"/><path d="M9.84,21.21h11.6c.12,0,.3-.18.11-.18H9.94c-.12,0-.3.18-.11.18Z"/></g></g></svg>