<svg xmlns="http://www.w3.org/2000/svg" viewBox="0 0 4368.33 3166.86"><defs><style>.cls-1{fill:none;}</style></defs><title>squig</title><g id="Layer_2" data-name="Layer 2"><g id="Layer_1-2" data-name="Layer 1"><path class="cls-1" d="M2.94,3166.86q-8-736.15,5.77-1472.33c2.35-125.53,5.64-253.67,48.49-371.68,27.24-75,87-153.64,166.62-147.45,56.05,4.36,99.31,49.75,133.86,94.1,316,405.74,378.8,950.12,601,1413.95,12.83,26.78,27.38,54.64,52.55,70.39,80.33,50.26,167.31-57.27,193.58-148.31,131.07-454.19,4.7-938.07,3.36-1410.79-.27-96.42,26.44-219.29,121.52-235.27,76-12.77,139.31,55.25,184,118a3073.83,3073.83,0,0,1,358.37,661.78c82.41,210.33,148.57,440.59,317.37,590.71,16.57,14.74,35.73,29.21,57.9,29.82,44.21,1.22,69.32-49.47,80.53-92.25,132.59-505.74-110.27-1031.29-110.31-1554.12,0-26,.92-53.3,13.67-76,39.11-69.62,145.9-44.24,212.48-.15,250.24,165.7,390.09,453.44,487.27,737.39s165.54,582.51,323.42,837.75c94.53-67.88,134.75-187.55,161.24-300.87,87.28-373.38,85.46-767.29-5.27-1139.85-55.07-226.13-142.57-446-163-677.87-2.39-27.15-2.66-57.84,16.22-77.51,31.66-33,86.75-9.77,124.55,15.94,552.73,375.94,922.94,1008.36,980.16,1674.37"/></g></g></svg>