<svg xmlns="http://www.w3.org/2000/svg" viewBox="0 0 83.32 82.1"><defs><style>.cls-1{fill:none;}</style></defs><title>squiggles_1</title><g id="Layer_2" data-name="Layer 2"><g id="Layer_1-2" data-name="Layer 1"><path class="cls-1" d="M3.33,77.52"/><path class="cls-1" d="M0,2.61A8.88,8.88,0,0,1,1.83,0,8.22,8.22,0,0,0,4,2.51,7.78,7.78,0,0,1,4.87,0Q6.39.91,7.79,1.92A7.82,7.82,0,0,1,8.66.52.71.71,0,0,1,9.14.19a.83.83,0,0,1,.6.28L12.87,3.3a21.45,21.45,0,0,1,1-2.18,7.74,7.74,0,0,1,3.55,2.44"/><path class="cls-1" d="M2.11,78.43H22.78A23.75,23.75,0,0,1,18,77.79"/><path class="cls-1" d="M58.35,76.85l2.75,3.43,1.17-5.57a1.14,1.14,0,0,1,.39-.77c.39-.25.91.06,1.16.44a5,5,0,0,0,.75,1.15c.65.55,1.69.26,2.41.7s.84,1.27,1.27,1.92,1.6.95,1.86.22l4.37,3.72a8.94,8.94,0,0,0,.28-3.44.93.93,0,0,1,.87.7"/><path class="cls-1" d="M.28,55.55C2.75,56,4.89,53.92,6.52,52c.81-.95,1.67-2,1.58-3.28s-1.76-2.29-2.61-1.38c-.66.7-.28,1.84.18,2.69a26.57,26.57,0,0,0,4.61,6.18,6,6,0,0,0,2.89,1.85A2.44,2.44,0,0,0,16,56.65c.13-.43.21-1,.66-1.07.25,0,.46.17.67.31A2.47,2.47,0,0,0,20,55.77a5.55,5.55,0,0,0,1.77-2.1,2.21,2.21,0,0,1,.58-.78c.61-.43,1.43-.11,2.14.12a7.11,7.11,0,0,0,5.71-.65"/><path class="cls-1" d="M30,36a1.84,1.84,0,0,1,2.14-1.87,3,3,0,0,1,2.19,2.24c.76-.09.65-1.22,1-1.92.43-1,1.75-1.08,2.81-1a63.75,63.75,0,0,1,13,2.26"/><path class="cls-1" d="M50.32,9.81c.81.29,1.44-.82,1.33-1.67s-.54-1.71-.26-2.52a2.09,2.09,0,0,1,2.48-1.09,6.08,6.08,0,0,1,2.48,1.59L57,4.73q2.3,1.92,4.41,4.05a3.33,3.33,0,0,1,3.73-2.06,6.26,6.26,0,0,1,3.77,2.55,2.45,2.45,0,0,0,.71.71,2.22,2.22,0,0,0,1.13.17L75.36,10"/><path class="cls-1" d="M82.1,57.37l-.05-8-.84,2.24a9.4,9.4,0,0,0,2.12-4.93"/><path class="cls-1" d="M9.74,21h11.6"/></g></g></svg>