<svg xmlns="http://www.w3.org/2000/svg" viewBox="0 0 79.54 20.63"><defs><style>.cls-1{fill:none;}</style></defs><title>squig1</title><g id="Layer_2" data-name="Layer 2"><g id="Layer_1-2" data-name="Layer 1"><path class="cls-1" d="M0,12.6A11.78,11.78,0,0,1,2,7.7,2.32,2.32,0,0,1,3.45,6.59C4.33,6.47,5,7.26,5.58,8l3.37,4.48q3.15-4.22,6.59-8.2L20,12.49,28.33,1.77Q31.47,7.22,34.07,13A26.8,26.8,0,0,1,41.56,0L53.13,20.63l8.08-9.37a7.84,7.84,0,0,1,3.62-2.81A6.45,6.45,0,0,1,69,9.1a18.27,18.27,0,0,1,9.15,9.12L79.54,7"/></g></g></svg>